<svg width="370" height="612" viewBox="0 0 370 612" fill="none" xmlns="http://www.w3.org/2000/svg">
<path d="M1.07555e-10 24C1.07425e-10 10.7452 10.7452 0 24 0H346C359.255 0 370 10.7452 370 24V588C370 601.255 359.255 612 346 612H24C10.7452 612 0 601.255 0 588L0 432V412.456C0 405.068 3.40264 398.092 9.22454 393.543L30.7755 376.707C36.5974 372.158 40 365.182 40 357.794V270.206C40 262.818 36.5974 255.842 30.7755 251.293L9.22454 234.457C3.40264 229.908 1.09139e-10 222.932 1.09139e-10 215.544V186L1.07555e-10 24Z" fill="#2A2A2A"/>
</svg>
